<?xml version="1.0" encoding="UTF-8" standalone="no"?>
<!-- Created with Inkscape (http://www.inkscape.org/) -->

<svg
   version="1.1"
   id="svg1"
   width="128"
   height="128"
   viewBox="0 0 128 128"
   sodipodi:docname="vixen_logo.svg"
   inkscape:version="1.3.2 (091e20ef0f, 2023-11-25, custom)"
   xmlns:inkscape="http://www.inkscape.org/namespaces/inkscape"
   xmlns:sodipodi="http://sodipodi.sourceforge.net/DTD/sodipodi-0.dtd"
   xmlns="http://www.w3.org/2000/svg"
   xmlns:svg="http://www.w3.org/2000/svg">
  <defs
     id="defs1" />
  <sodipodi:namedview
     id="namedview1"
     pagecolor="#ffffff"
     bordercolor="#000000"
     borderopacity="0.25"
     inkscape:showpageshadow="2"
     inkscape:pageopacity="0.0"
     inkscape:pagecheckerboard="0"
     inkscape:deskcolor="#d1d1d1"
     inkscape:zoom="4"
     inkscape:cx="62.375"
     inkscape:cy="57.375"
     inkscape:window-width="1898"
     inkscape:window-height="1026"
     inkscape:window-x="0"
     inkscape:window-y="0"
     inkscape:window-maximized="1"
     inkscape:current-layer="svg1" />
  <path
     style="fill:#008080;stroke:none;stroke-width:0.357491"
     d="M 20.839208,101.96376 C 19.313773,98.897331 17.170125,96.294075 15.909975,93.040778 12.6385,84.594897 13.908889,71.639952 24.156728,68.67416 c -1.89857,2.06743 -3.180009,4.979552 -3.440479,7.779013 -0.08848,0.95097 -0.25495,2.273402 0.351754,3.088726 1.022511,-1.750221 2.069924,-3.38381 3.546402,-4.80018 8.255785,-7.919704 21.725457,-7.227336 32.259935,-8.994574 4.66863,-0.783199 10.072152,-2.245439 13.155244,-6.110368 0.851166,-1.067004 1.852127,-2.390999 2.05959,-3.775109 l -0.571986,0.114397 v -0.114397 c 1.071184,-0.557229 2.868947,-3.427123 1.461039,-4.490975 -1.12075,-0.846867 -1.959039,0.851836 -2.948203,0.937955 -2.053921,0.178819 -4.394756,-0.58424 -6.291849,-1.300302 -7.244206,-2.734342 -10.93168,-10.170813 -17.159584,-14.324807 -1.637307,-1.092081 -3.395404,-1.941095 -5.262274,-2.557258 -0.535468,-0.176735 -1.861983,-0.245321 -2.102846,-0.826559 -0.249286,-0.601563 0.248896,-1.780643 0.420163,-2.376655 0.494611,-1.721223 1.337783,-3.334941 2.516564,-4.690287 0.654606,-0.752652 1.691753,-1.401694 2.140448,-2.287945 -3.176605,0 -6.178499,0.415849 -9.151782,1.601562 -0.765705,0.305355 -2.284317,0.683276 -2.742357,1.416105 -0.616808,0.986852 0.253432,3.215782 0.340015,4.303757 h -0.114397 c -0.761739,-2.79066 -1.685209,-5.405549 -1.092601,-8.350999 0.329716,-1.638784 1.378193,-3.103368 1.664587,-4.690288 -5.991018,1.236585 -10.820147,5.326643 -13.10387,10.982137 -0.590693,1.462817 -0.968322,3.029495 -1.257575,4.57589 -0.109514,0.585469 -0.0079,1.52993 -0.379559,2.014129 -0.425774,0.554761 -1.474397,0.730937 -2.075391,1.059061 -1.523121,0.83158 -2.954234,1.744468 -4.347096,2.778819 -3.400909,2.525551 -5.9865854,6.124442 -7.9724109,9.820414 -7.524082,14.00366 -3.97946184,32.20703 6.2387109,43.814151 2.178443,2.474559 4.656617,4.747911 7.339165,6.668226 0.980339,0.701781 2.044368,1.659151 3.203123,2.025961 M 32.85092,31.380656 32.736522,31.495054 32.85092,31.380656 m 18.303557,16.24441 c -1.572158,0.533256 -3.485841,0.723718 -5.033475,0.0113 -2.261931,-1.041229 -3.586411,-2.983573 -6.291849,-3.100023 0.524143,-0.403253 1.420328,-0.461939 2.05915,-0.654342 0.755855,-0.227649 1.49158,-0.537976 2.287946,-0.593792 3.22474,-0.226016 4.908249,2.354137 6.978228,4.33686 M 21.1824,71.648489 c -1.151899,0.446131 -2.043653,1.635419 -2.707402,2.631136 -1.883053,2.824855 -2.554871,6.377 -2.554871,9.72377 0,11.61106 8.012761,21.181085 18.989943,24.366525 4.731078,1.3729 9.75611,1.60365 14.642846,1.2687 12.3814,-0.84868 23.606073,-5.26002 34.54797,-10.907551 8.497674,-4.38598 17.598774,-10.516453 27.455344,-10.948064 3.97664,-0.174137 7.93387,0.756642 11.43972,2.636257 1.71227,0.918012 3.27641,2.450714 5.03348,3.193502 0,-3.756398 -0.72057,-7.515817 -1.83328,-11.096533 -0.86377,-2.779649 -2.20352,-5.640567 -3.90433,-8.007811 C 112.14874,60.390912 92.819962,57.924511 77.69464,65.068974 71.837222,67.835728 67.150795,72.379147 62.251011,76.519023 56.594774,81.298036 50.591142,85.670085 43.833057,88.77277 37.350236,91.749072 28.34308,94.453524 22.917778,88.121696 21.890249,86.92247 21.192676,85.557679 20.578372,84.117793 c -0.697968,-1.635992 -1.111817,-3.482814 -1.111931,-5.262278 -1.72e-4,-2.707146 0.86459,-4.706739 1.715959,-7.207026 m 104.67348,18.074769 c -2.26331,-0.66576 -4.32301,-2.212993 -6.63504,-2.934608 -4.90571,-1.531139 -10.23808,-1.062915 -15.10044,0.385916 -4.09134,1.219088 -7.975879,3.075767 -11.782912,4.979283 -1.114415,0.557204 -2.206147,1.154998 -3.31752,1.716041 -0.487572,0.24614 -0.931126,0.60079 -1.487165,0.543655 0.213952,-0.898665 0.171918,-1.837534 0.39757,-2.745534 0.885163,-3.561726 3.234961,-8.258795 6.923854,-9.609369 v -0.228794 c -3.766876,-0.871457 -7.081715,-1.288256 -10.867738,-0.146268 -1.372989,0.414147 -2.54436,1.322153 -3.889507,1.747829 0.09791,-0.956926 0.642055,-1.886504 1.048644,-2.745538 1.274178,-2.692042 3.153178,-5.079416 5.357602,-7.073207 0.99882,-0.90338 2.359018,-1.613744 3.203123,-2.650559 -4.255503,0 -9.186181,-0.831589 -12.812492,-3.203123 v -0.228794 c 3.215964,-1.338935 6.293275,-2.740058 9.723766,-3.497768 11.081551,-2.447622 24.131635,-0.373114 31.867845,8.645644 1.94316,2.265316 3.54731,4.712205 4.77424,7.435821 1.33703,2.968012 2.33914,6.352773 2.59617,9.609373 z"
     id="path4232" />
</svg>
